<svg version="1.1" xmlns="http://www.w3.org/2000/svg" xmlns:xlink="http://www.w3.org/1997/xlink" x="0px" y="0px" width="40px"
    height="28px" viewBox="0 0 40 28" style="enable-background:new 0 0 40 28;" xml:space="preserve">
   <g>
       <g>
           <path d="M39.499,1.653H9.858c-0.267,0-0.501,0.234-0.501,0.501v5.213l1.002-0.201V2.655h28.638v22.657H10.359V13.415
               c-0.301,0.134-0.635,0.234-1.002,0.234v12.197c0,0.267,0.234,0.501,0.501,0.501h29.641c0.267,0,0.501-0.234,0.501-0.501V2.154
               C40,1.886,39.766,1.653,39.499,1.653z"/>
           <path d="M36.926,5.228c0-0.267-0.234-0.501-0.501-0.501H26.399c-0.267,0-0.501,0.234-0.501,0.501v4.077
               c0,0.267,0.234,0.501,0.501,0.501h10.025c0.267,0,0.501-0.234,0.501-0.501V5.228z M35.923,8.77h-9.023V5.696h9.023V8.77z"/>
           <path d="M25.063,18.929c0,0.267,0.234,0.501,0.501,0.501h10.86c0.267,0,0.501-0.234,0.501-0.501
               c0-0.267-0.234-0.501-0.501-0.501h-10.86C25.296,18.428,25.063,18.662,25.063,18.929z"/>
           <path d="M23.325,22.104c0,0.267,0.234,0.501,0.501,0.501h12.598c0.267,0,0.501-0.234,0.501-0.501
               c0-0.267-0.234-0.501-0.501-0.501H23.826C23.559,21.602,23.325,21.803,23.325,22.104z"/>
           <path d="M36.424,15.287h-9.19c-0.267,0-0.501,0.234-0.501,0.501c0,0.267,0.234,0.501,0.501,0.501h9.19
               c0.267,0,0.501-0.234,0.501-0.501C36.926,15.52,36.725,15.287,36.424,15.287z"/>
       </g>
       <path class="svg_blue" d="M18.647,6.732c-0.1-0.535-0.401-1.036-0.869-1.337c-0.468-0.301-1.002-0.434-1.571-0.334l-5.848,1.103
           L9.357,6.364L8.321,6.531H8.287H8.221c-0.033,0-0.033,0-0.067,0s-0.033,0-0.033,0l0,0C6.617,6.932,5.48,8.135,5.146,9.639
           l-0.601,0.434H3.542V9.205c0-0.267-0.234-0.501-0.501-0.501h-2.54C0.234,8.703,0,8.937,0,9.205s0.234,0.501,0.501,0.501H2.54
           v0.902c0,0,0,0,0,0.033s0,0,0,0.033v10.226c0,0,0,0,0,0.033c0,0,0,0,0,0.033v1.403H0.501C0.234,22.371,0,22.605,0,22.872
           c0,0.267,0.234,0.501,0.501,0.501h2.54c0.267,0,0.501-0.234,0.501-0.501v-1.437c0.501,0,0.902,0.067,1.303,0.134
           c0.668,0.134,1.17,0.468,1.771,0.869c0.167,0.134,0.368,0.234,0.568,0.368c0.769,0.468,1.504,0.769,2.206,0.936l0,0v-1.036l0,0
           c-0.535-0.134-1.103-0.368-1.671-0.735c-0.167-0.1-0.368-0.234-0.535-0.334C6.55,21.201,5.915,20.8,5.046,20.6
           c-0.434-0.1-0.902-0.134-1.504-0.167v-9.323h1.17c0.1,0,0.2-0.033,0.301-0.1l0.869-0.635c0.1-0.067,0.167-0.2,0.2-0.334
           c0.2-1.203,1.103-2.172,2.306-2.506l0,0c0.033,0,0.033,0,0.067-0.033l0.869-0.167l1.002-0.2l6.049-1.136
           c0.301-0.067,0.568,0,0.802,0.167c0.234,0.167,0.401,0.401,0.434,0.702c0.067,0.267,0,0.568-0.167,0.802
           c-0.167,0.234-0.401,0.401-0.702,0.468l-4.311,0.802c-0.134,0.033-0.267,0.1-0.334,0.234c-0.067,0.134-0.1,0.267-0.033,0.401
           c0.134,0.468,0.2,0.969,0.1,1.437c-0.167,1.069-0.902,1.938-1.838,2.339c-0.301,0.134-0.635,0.234-1.002,0.234
           c-0.234,0.033-0.468,0-0.702-0.033c-0.2-0.033-0.401,0.067-0.501,0.234c-0.033,0.067-0.067,0.1-0.067,0.2
           c-0.033,0.267,0.134,0.535,0.401,0.568c0.234,0.033,0.468,0.067,0.668,0.067c0.067,0,0.134,0,0.2,0
           c0.334,0,0.668-0.067,1.002-0.167c1.437-0.434,2.573-1.671,2.84-3.241c0.067-0.468,0.067-0.902,0-1.37l3.776-0.702
           c0.535-0.1,1.036-0.401,1.337-0.869C18.613,7.835,18.747,7.3,18.647,6.732z"/>
   </g>
</svg>
