<svg version="1.1" xmlns="http://www.w3.org/2000/svg" xmlns:xlink="http://www.w3.org/1997/xlink" x="0px" y="0px" width="40px"
    height="28px" viewBox="0 0 40 28" style="enable-background:new 0 0 40 28;" xml:space="preserve">
   <g>
       <path d="M15.94,8.655v-4.57c0-0.302-0.264-0.567-0.567-0.567H4.042c-0.302,0-0.567,0.264-0.567,0.567v4.608
           c0,0.302,0.264,0.567,0.567,0.567h11.331C15.675,9.222,15.94,8.995,15.94,8.655z M14.806,8.089H4.608V4.614h10.198L14.806,8.089
           L14.806,8.089z"/>
       <path d="M4.042,20.138h12.276c0.302,0,0.567-0.264,0.567-0.567c0-0.302-0.264-0.567-0.567-0.567H4.042
           c-0.302,0-0.567,0.264-0.567,0.567C3.475,19.874,3.702,20.138,4.042,20.138z"/>
       <path d="M4.042,23.726h14.24c0.302,0,0.567-0.264,0.567-0.567s-0.264-0.567-0.567-0.567H4.042
           c-0.302,0-0.567,0.264-0.567,0.567S3.702,23.726,4.042,23.726z"/>
       <path d="M4.042,15.454c-0.302,0-0.567,0.264-0.567,0.567c0,0.302,0.264,0.567,0.567,0.567h10.387
           c0.302,0,0.567-0.264,0.567-0.567c0-0.302-0.264-0.567-0.567-0.567H4.042z"/>
       <path d="M34.636,27.39v-4.533c0-0.302-0.264-0.567-0.567-0.567c-0.302,0-0.567,0.264-0.567,0.567v3.966H1.133V1.177
           h32.37V6.2c0,0.302,0.264,0.567,0.567,0.567c0.302,0,0.567-0.264,0.567-0.567V0.61c0-0.302-0.264-0.567-0.567-0.567H0.567
           C0.264,0.043,0,0.308,0,0.61v26.78c0,0.302,0.264,0.567,0.567,0.567H34.07C34.372,27.957,34.636,27.692,34.636,27.39z"/>
       <g>
           <path class="svg_red" d="M30.293,4.803c-5.364,0-9.707,4.344-9.707,9.707s4.344,9.707,9.707,9.707S40,19.873,40,14.51
               S35.618,4.803,30.293,4.803z M30.293,23.122c-4.721,0-8.574-3.853-8.574-8.574c0-4.721,3.815-8.612,8.574-8.612
               s8.574,3.853,8.574,8.574C38.867,19.231,35.014,23.122,30.293,23.122z"/>
           <path class="svg_red" d="M34.523,10.28c-0.227-0.227-0.567-0.227-0.793,0l-3.475,3.475L26.78,10.28c-0.227-0.227-0.567-0.227-0.793,0
               c-0.227,0.227-0.227,0.567,0,0.793l3.475,3.475l-3.475,3.475c-0.227,0.227-0.227,0.567,0,0.793
               c0.113,0.113,0.264,0.151,0.416,0.151c0.151,0,0.302-0.038,0.415-0.151l3.475-3.475l3.475,3.475
               c0.113,0.113,0.264,0.151,0.415,0.151c0.151,0,0.302-0.038,0.416-0.151c0.227-0.227,0.227-0.567,0-0.793l-3.475-3.475
               l3.475-3.475C34.75,10.846,34.75,10.506,34.523,10.28z"/>
       </g>
   </g>
</svg>
