<svg version="1.1" xmlns="http://www.w3.org/2000/svg" xmlns:xlink="http://www.w3.org/1997/xlink" x="0px" y="0px" width="40px"
    height="28px" viewBox="0 0 40 28" style="enable-background:new 0 0 40 28;" xml:space="preserve">
   <g>
       <path class="svg_green" d="M34.909,11.897l-1.061-1.288c-0.152-0.189-0.189-0.379-0.152-0.606l0.379-1.629
           c0.114-0.568,0-1.137-0.341-1.553c-0.341-0.455-0.871-0.72-1.44-0.72h-1.667c-0.227,0-0.417-0.114-0.568-0.265l-1.061-1.288
           c-0.341-0.455-0.871-0.682-1.44-0.682s-1.099,0.265-1.44,0.682l-1.061,1.288C24.907,6.024,24.717,6.1,24.49,6.1h-1.667
           c-0.568,0-1.099,0.265-1.44,0.72c-0.341,0.455-0.493,1.023-0.341,1.553l0.379,1.629c0.038,0.227,0,0.417-0.152,0.606l-1.061,1.288
           c-0.341,0.455-0.493,1.023-0.379,1.553c0.114,0.568,0.493,1.023,1.023,1.25l1.516,0.72c0.189,0.114,0.341,0.265,0.379,0.493
           l0.379,1.629c0.114,0.568,0.493,1.023,1.023,1.25c0.227,0.114,0.493,0.189,0.758,0.189v5.001c0,0.341,0.189,0.644,0.455,0.796
           c0.341,0.189,0.758,0.227,1.137,0.038l1.099-0.568l1.099,0.606c0.152,0.076,0.341,0.152,0.53,0.152
           c0.189,0,0.417-0.038,0.568-0.152c0.303-0.189,0.493-0.493,0.493-0.796V19.02c0.265,0,0.531-0.076,0.758-0.189
           c0.531-0.265,0.871-0.72,1.023-1.25l0.379-1.629c0.038-0.227,0.189-0.379,0.379-0.493l1.516-0.72
           c0.53-0.265,0.871-0.72,1.023-1.25C35.402,12.92,35.25,12.352,34.909,11.897z M28.089,23.264c-0.341-0.189-0.758-0.189-1.099,0
           l-1.023,0.531v-5.115l1.25-0.606c0.189-0.114,0.417-0.114,0.644,0l1.25,0.606v5.115L28.089,23.264z M34.152,13.223
           c-0.038,0.227-0.189,0.379-0.379,0.493l-1.516,0.72c-0.531,0.265-0.871,0.72-1.023,1.25l-0.379,1.629
           c-0.038,0.227-0.19,0.379-0.379,0.493c-0.19,0.114-0.417,0.114-0.644,0l-1.516-0.72c-0.53-0.227-1.099-0.227-1.629,0l-1.516,0.72
           c-0.189,0.114-0.417,0.114-0.644,0c-0.189-0.114-0.341-0.265-0.379-0.493l-0.379-1.629c-0.114-0.568-0.493-1.023-1.023-1.25
           l-1.516-0.72c-0.189-0.114-0.341-0.265-0.379-0.493c-0.038-0.227,0-0.417,0.152-0.606l1.061-1.288
           c0.341-0.455,0.493-1.023,0.379-1.553l-0.379-1.629c-0.038-0.227,0-0.417,0.152-0.606c0.152-0.189,0.341-0.265,0.568-0.265h1.667
           c0.568,0,1.099-0.265,1.44-0.682l1.061-1.288c0.265-0.341,0.871-0.341,1.137,0l1.061,1.288c0.341,0.455,0.871,0.682,1.44,0.682
           h1.667c0.227,0,0.417,0.114,0.568,0.265c0.152,0.189,0.189,0.379,0.152,0.606l-0.379,1.629c-0.114,0.568,0,1.137,0.341,1.553
           L34,12.617C34.152,12.807,34.189,13.034,34.152,13.223z"/>
       <g>
           <g>
               <g>
                   <g>
                       <path class="svg_green" d="M27.521,15.194c-1.932,0-3.486-1.553-3.486-3.448s1.553-3.448,3.486-3.448
                           c1.932,0,3.486,1.553,3.486,3.448S29.453,15.194,27.521,15.194z M27.521,9.396c-1.288,0-2.349,1.061-2.349,2.311
                           s1.061,2.311,2.349,2.311c1.288,0,2.349-1.061,2.349-2.311S28.809,9.396,27.521,9.396z"/>
                   </g>
               </g>
           </g>
       </g>
       <path d="M6.644,9.207h11.367c0.303,0,0.568-0.265,0.568-0.568V4.054c0-0.303-0.265-0.568-0.568-0.568H6.644
           c-0.303,0-0.568,0.265-0.568,0.568v4.622C6.076,8.98,6.341,9.207,6.644,9.207z M7.212,4.623h10.23v3.486H7.212V4.623z"/>
       <path d="M6.076,19.589c0,0.303,0.265,0.568,0.568,0.568h12.314c0.303,0,0.568-0.265,0.568-0.568
           s-0.265-0.568-0.568-0.568H6.644C6.341,19.02,6.076,19.286,6.076,19.589z"/>
       <path d="M6.076,23.188c0,0.303,0.265,0.568,0.568,0.568h14.284c0.303,0,0.568-0.265,0.568-0.568
           c0-0.303-0.265-0.568-0.568-0.568H6.644C6.341,22.62,6.076,22.847,6.076,23.188z"/>
       <path d="M6.644,16.595h10.419c0.303,0,0.568-0.265,0.568-0.568s-0.265-0.568-0.568-0.568H6.644
           c-0.303,0-0.568,0.265-0.568,0.568S6.341,16.595,6.644,16.595z"/>
       <path d="M37.372,27.432V0.568C37.372,0.265,37.107,0,36.804,0H3.196C2.893,0,2.628,0.265,2.628,0.568v26.863
           C2.628,27.735,2.893,28,3.196,28h33.607C37.107,28,37.372,27.735,37.372,27.432z M36.235,26.863H3.765V1.137h32.471L36.235,26.863
           L36.235,26.863z"/>
   </g>
</svg>
