<svg version="1.1" xmlns="http://www.w3.org/2000/svg" xmlns:xlink="http://www.w3.org/1997/xlink" x="0px" y="0px" width="40px"
    height="40px" viewBox="0 0 40 40" style="enable-background:new 0 0 40 40;" xml:space="preserve">
   <g>
	   <path class="svg_red" d="M20.173,17.942c-0.127,0-0.253-0.063-0.348-0.158l-2.688-3.163c-0.127-0.158-0.158-0.38-0.063-0.538
		   l1.834-3.131l-0.696-2.499c-0.063-0.253,0.063-0.506,0.316-0.569c0.253-0.063,0.506,0.063,0.569,0.316l0.759,2.688
		   c0.032,0.126,0.032,0.253-0.063,0.38l-1.771,3.005l1.233,1.423l-0.285-1.202c-0.032-0.127,0-0.253,0.063-0.348l2.119-3.606
		   l-0.569-1.455c-0.095-0.253,0.032-0.506,0.285-0.601c0.253-0.095,0.506,0.032,0.601,0.285l0.664,1.676
		   c0.063,0.127,0.032,0.285-0.032,0.411l-2.119,3.637l0.696,2.91c0.063,0.221-0.063,0.443-0.253,0.538
		   C20.331,17.942,20.268,17.942,20.173,17.942z"/>
   </g>

   <g>
	   <path d="M7.111,11.048c-0.221,0-0.411-0.158-0.474-0.38c-0.063-0.253,0.126-0.506,0.38-0.569l11.576-2.277
		   c0.253-0.063,0.506,0.126,0.569,0.38c0.063,0.253-0.126,0.506-0.38,0.569L7.205,11.048
		   C7.174,11.048,7.142,11.048,7.111,11.048z"/>
   </g>

   <g>
	   <path class="svg_red" d="M3.347,13.451c-0.253,0-0.474-0.19-0.474-0.475v-0.032c0-0.253,0.221-0.474,0.474-0.474
		   s0.474,0.221,0.474,0.474C3.821,13.198,3.6,13.451,3.347,13.451z"/>
   </g>

   <g>
	   <path class="svg_red" d="M4.644,11.554c-0.221,0-0.411-0.158-0.474-0.38c-0.063-0.253,0.095-0.506,0.38-0.569H4.58
		   c0.253-0.063,0.506,0.095,0.569,0.38c0.063,0.253-0.095,0.506-0.38,0.569H4.738C4.707,11.522,4.675,11.554,4.644,11.554z"/>
   </g>

   <g>
	   <path class="svg_red" d="M34.911,11.49L34.911,11.49c-0.032,0-0.063,0-0.095,0h-0.032c-0.253-0.032-0.443-0.285-0.38-0.538
		   c0.032-0.253,0.285-0.443,0.538-0.38h0.032c0.221,0.032,0.411,0.221,0.411,0.474C35.386,11.269,35.164,11.49,34.911,11.49z"/>
   </g>

   <g>
	   <path d="M32.571,11.111c-0.032,0-0.063,0-0.063,0L20.964,9.34c-0.253-0.032-0.443-0.285-0.411-0.538
		   c0.032-0.253,0.285-0.443,0.538-0.411l11.544,1.771c0.253,0.032,0.443,0.285,0.411,0.538
		   C33.014,10.953,32.792,11.111,32.571,11.111z"/>
   </g>

   <g>
	   <path class="svg_red" d="M37.031,12.281c-0.253,0-0.474-0.19-0.474-0.474l0,0c0-0.253,0.221-0.474,0.474-0.474
		   c0.253,0,0.474,0.221,0.474,0.474S37.284,12.281,37.031,12.281z"/>
   </g>
   <g>
	   <path d="M37.031,14.21c-0.253,0-0.474,0.221-0.474,0.474v17.111H3.821V15.412c0-0.253-0.221-0.474-0.474-0.474
		   c-0.253,0-0.474,0.221-0.474,0.474V32.27c0,0.253,0.221,0.474,0.474,0.474h33.684c0.253,0,0.474-0.221,0.474-0.474V14.685
		   C37.505,14.432,37.284,14.21,37.031,14.21z"/>
	   <path d="M5.972,30.151h13.315c0.253,0,0.474-0.221,0.474-0.474c0-0.253-0.221-0.475-0.474-0.475H5.972
		   c-0.253,0-0.474,0.221-0.474,0.475C5.498,29.929,5.719,30.151,5.972,30.151z"/>
	   <path d="M5.972,26.64h13.315c0.253,0,0.474-0.221,0.474-0.475c0-0.253-0.221-0.474-0.474-0.474H5.972
		   c-0.253,0-0.474,0.221-0.474,0.474C5.498,26.419,5.719,26.64,5.972,26.64z"/>
	   <path d="M5.972,23.161h13.315c0.253,0,0.474-0.221,0.474-0.474s-0.221-0.474-0.474-0.474H5.972
		   c-0.253,0-0.474,0.221-0.474,0.474S5.719,23.161,5.972,23.161z"/>
	   <path d="M24.854,16.835h8.065c0.253,0,0.474-0.221,0.474-0.474c0-0.253-0.221-0.474-0.474-0.474h-8.065
		   c-0.253,0-0.474,0.221-0.474,0.474C24.379,16.614,24.601,16.835,24.854,16.835z"/>
	   <path d="M24.854,14.242h8.065c0.253,0,0.474-0.221,0.474-0.474c0-0.253-0.221-0.474-0.474-0.474h-8.065
		   c-0.253,0-0.474,0.221-0.474,0.474C24.379,14.021,24.601,14.242,24.854,14.242z"/>
   </g>
   <g>
	   <path class="svg_red" d="M39.213,10.257c-0.348-0.19-0.727-0.253-1.107-0.19c-0.095-0.443-0.348-0.822-0.759-1.075
		   c-0.285-0.158-0.633-0.221-0.949-0.19c-0.032-0.538-0.285-1.044-0.791-1.328c-0.759-0.443-1.74-0.19-2.182,0.569l-1.139,1.961
		   c-0.443,0.759-0.19,1.739,0.569,2.182c0.253,0.127,0.506,0.221,0.791,0.221c0.063,0,0.095,0,0.158,0
		   c0.032,0.538,0.285,1.044,0.791,1.328c0.253,0.158,0.538,0.221,0.791,0.221c0.095,0,0.19,0,0.316-0.032
		   c0.095,0.443,0.348,0.822,0.759,1.044l0.253-0.411l-0.253,0.411c0.253,0.126,0.506,0.221,0.791,0.221
		   c0.126,0,0.285-0.032,0.411-0.063c0.411-0.095,0.759-0.38,0.98-0.727l1.139-1.961C40.225,11.649,39.972,10.7,39.213,10.257z
			M33.362,11.395L33.362,11.395c-0.316-0.19-0.411-0.569-0.221-0.886l1.139-1.961c0.127-0.221,0.348-0.316,0.569-0.316
		   c0.095,0,0.221,0.032,0.316,0.095c0.316,0.19,0.411,0.569,0.221,0.886l-1.139,1.961c-0.095,0.158-0.221,0.253-0.38,0.285
		   C33.678,11.49,33.488,11.459,33.362,11.395z M35.101,12.914c-0.316-0.19-0.411-0.569-0.221-0.886l1.139-1.961
		   c0.095-0.158,0.221-0.253,0.38-0.285c0.063,0,0.126-0.032,0.158-0.032c0.126,0,0.221,0.032,0.316,0.095
		   c0.316,0.19,0.411,0.569,0.221,0.886l-0.032,0.032c-0.032,0.032-0.032,0.063-0.063,0.095l-1.107,1.929
		   C35.702,13.009,35.386,13.072,35.101,12.914z M38.96,11.933l-1.139,1.961c-0.19,0.316-0.569,0.411-0.886,0.221
		   c-0.316-0.19-0.411-0.569-0.221-0.886c0.032-0.032,0.063-0.095,0.095-0.126l1.107-1.929c0.19-0.253,0.538-0.316,0.822-0.158
		   C39.023,11.237,39.15,11.649,38.96,11.933z"/>
	   <path class="svg_red" d="M5.814,8.169C5.245,7.505,4.232,7.41,3.568,7.98c-0.443,0.38-0.633,0.917-0.538,1.455
		   C2.714,9.466,2.398,9.561,2.113,9.783c-0.38,0.316-0.569,0.791-0.569,1.233c-0.348,0-0.696,0.127-0.98,0.38
		   c-0.664,0.569-0.759,1.581-0.19,2.246l1.455,1.739c0.316,0.38,0.759,0.569,1.234,0.569c0.348,0,0.727-0.126,1.012-0.38l0,0
		   c0.38-0.316,0.569-0.791,0.569-1.234c0.348,0,0.696-0.126,0.98-0.38c0.316-0.285,0.538-0.664,0.569-1.075c0-0.127,0-0.253,0-0.38
		   c0.316-0.032,0.633-0.126,0.917-0.348l0,0c0.664-0.569,0.759-1.581,0.19-2.246L5.814,8.169z M3.442,14.843
		   c-0.285,0.221-0.664,0.19-0.917-0.095L1.07,13.009c-0.221-0.285-0.19-0.664,0.063-0.917c0.126-0.095,0.253-0.158,0.411-0.158
		   c0.032,0,0.032,0,0.063,0c0.126,0,0.253,0.063,0.348,0.158l1.392,1.645c0.032,0.063,0.095,0.095,0.126,0.126l0.032,0.032
		   C3.758,14.21,3.726,14.622,3.442,14.843z M5.023,13.23L5.023,13.23c-0.253,0.19-0.601,0.19-0.822,0l-1.392-1.645
		   c-0.032-0.032-0.063-0.063-0.095-0.095l-0.063-0.095c-0.221-0.285-0.19-0.664,0.095-0.917c0.126-0.095,0.253-0.158,0.411-0.158
		   c0.19,0,0.38,0.063,0.506,0.221l1.455,1.739c0.095,0.127,0.158,0.285,0.158,0.474C5.213,12.977,5.15,13.103,5.023,13.23z
			M6.446,11.427c-0.285,0.221-0.664,0.19-0.917-0.095L4.074,9.593c-0.221-0.285-0.19-0.664,0.095-0.917
		   C4.296,8.581,4.422,8.517,4.58,8.517c0.19,0,0.38,0.063,0.506,0.221l1.455,1.739C6.763,10.795,6.731,11.206,6.446,11.427z"/>
   </g>
</svg>
