<svg version="1.1" xmlns="http://www.w3.org/2000/svg" xmlns:xlink="http://www.w3.org/1999/xlink" x="0px" y="0px" width="148px"
    height="203px" viewBox="0 0 148 203" style="enable-background:new 0 0 148 203;" xml:space="preserve">
    <style type="text/css">
    .st0{fill:#00A9E6;}
    .st1{fill:#1A1A1A;}
    .st2{enable-background:new    ;}
    .st3{fill:#E60000;}
    .st4{fill:none;stroke:#000000;stroke-width:3;stroke-miterlimit:10;}
    .st5{fill:none;stroke:#0AA8C9;stroke-width:3;stroke-linecap:round;stroke-miterlimit:10;}
    .st6{fill:none;stroke:#000000;stroke-width:6;stroke-linecap:round;stroke-miterlimit:10;}
    .st7{fill:#0AA8C9;}
    .st8{fill:none;stroke:#1A1A1A;stroke-width:3;stroke-linejoin:round;stroke-miterlimit:10;}
    .st9{fill:none;stroke:#000000;stroke-width:3;stroke-linecap:round;stroke-linejoin:round;stroke-miterlimit:10;}
    .st10{fill:none;stroke:#00A9E6;stroke-width:3;stroke-linejoin:round;stroke-miterlimit:10;}
    .st11{fill:none;stroke:#00A9E6;stroke-width:3;stroke-linecap:round;stroke-linejoin:round;stroke-miterlimit:10;}
    .st12{fill:#70A800;}
    </style>
    <g id="Layer_1">
    <g>
       <g class="st2">
           <path class="st1" d="M44.6,152.4h-4.3v7.4h-2.4v-18.2h6c2.1,0,3.6,0.5,4.7,1.4c1.1,0.9,1.7,2.3,1.7,4.1c0,1.1-0.3,2.1-0.9,3
               c-0.6,0.8-1.5,1.5-2.6,1.9l4.3,7.7v0.2h-2.6L44.6,152.4z M40.3,150.5H44c1.2,0,2.1-0.3,2.8-0.9c0.7-0.6,1.1-1.4,1.1-2.5
               c0-1.1-0.3-2-1-2.6c-0.7-0.6-1.6-0.9-2.9-0.9h-3.7V150.5z"/>
           <path class="st1" d="M59,160.1c-1.8,0-3.3-0.6-4.5-1.8c-1.2-1.2-1.7-2.8-1.7-4.8V153c0-1.3,0.3-2.5,0.8-3.6s1.2-1.9,2.2-2.5
               c0.9-0.6,1.9-0.9,3-0.9c1.8,0,3.1,0.6,4.1,1.7c1,1.2,1.5,2.8,1.5,5v1h-9.2c0,1.3,0.4,2.4,1.2,3.2s1.7,1.2,2.8,1.2
               c0.8,0,1.5-0.2,2.1-0.5c0.6-0.3,1.1-0.8,1.5-1.3l1.4,1.1C62.9,159.2,61.2,160.1,59,160.1z M58.7,147.9c-0.9,0-1.7,0.3-2.4,1
               c-0.6,0.7-1,1.6-1.2,2.9h6.8v-0.2c-0.1-1.2-0.4-2.1-1-2.7C60.4,148.2,59.7,147.9,58.7,147.9z"/>
           <path class="st1" d="M68.1,159.8V148h-2.1v-1.8h2.1v-1.4c0-1.5,0.4-2.6,1.2-3.4c0.8-0.8,1.9-1.2,3.3-1.2c0.5,0,1.1,0.1,1.6,0.2
               l-0.1,1.9c-0.4-0.1-0.8-0.1-1.3-0.1c-0.8,0-1.3,0.2-1.7,0.7s-0.6,1.1-0.6,1.9v1.4h2.9v1.8h-2.9v11.8H68.1z"/>
           <path class="st1" d="M84.2,158.5c-0.9,1.1-2.2,1.6-4,1.6c-1.4,0-2.5-0.4-3.3-1.3c-0.8-0.8-1.1-2.1-1.1-3.7v-8.8h2.3v8.8
               c0,2.1,0.8,3.1,2.5,3.1c1.8,0,2.9-0.7,3.5-2v-9.9h2.3v13.5h-2.2L84.2,158.5z"/>
           <path class="st1" d="M92.2,146.3l0.1,1.7c1-1.3,2.4-2,4.1-2c2.9,0,4.3,1.6,4.3,4.8v9h-2.3v-9c0-1-0.2-1.7-0.7-2.2
               c-0.4-0.5-1.1-0.7-2-0.7c-0.8,0-1.4,0.2-2,0.6c-0.6,0.4-1,0.9-1.3,1.6v9.7H90v-13.5H92.2z"/>
           <path class="st1" d="M103.6,152.9c0-2.1,0.5-3.8,1.5-5s2.3-1.9,3.9-1.9c1.6,0,2.8,0.5,3.8,1.6v-7.1h2.3v19.2h-2.1l-0.1-1.5
               c-0.9,1.1-2.2,1.7-3.9,1.7c-1.6,0-2.8-0.6-3.8-1.9c-1-1.3-1.5-3-1.5-5V152.9z M105.9,153.2c0,1.5,0.3,2.7,1,3.6
               c0.6,0.9,1.5,1.3,2.6,1.3c1.5,0,2.5-0.7,3.2-2v-6.2c-0.7-1.3-1.8-1.9-3.2-1.9c-1.1,0-2,0.4-2.7,1.3
               C106.2,150.2,105.9,151.5,105.9,153.2z"/>
       </g>
       <g class="st2">
           <path class="st1" d="M25.2,182.4c-2.1-0.6-3.6-1.3-4.5-2.2c-0.9-0.9-1.4-1.9-1.4-3.2c0-1.4,0.6-2.6,1.7-3.6
               c1.1-0.9,2.6-1.4,4.5-1.4c1.3,0,2.4,0.2,3.3,0.7s1.7,1.2,2.3,2c0.5,0.9,0.8,1.8,0.8,2.8h-2.4c0-1.1-0.4-2-1.1-2.6
               c-0.7-0.6-1.7-0.9-3-0.9c-1.2,0-2.1,0.3-2.8,0.8c-0.7,0.5-1,1.2-1,2.2c0,0.7,0.3,1.4,0.9,1.9c0.6,0.5,1.7,1,3.2,1.4
               c1.5,0.4,2.7,0.9,3.6,1.4c0.9,0.5,1.5,1.1,1.9,1.8c0.4,0.7,0.6,1.5,0.6,2.4c0,1.5-0.6,2.7-1.7,3.5c-1.2,0.9-2.7,1.3-4.6,1.3
               c-1.3,0-2.4-0.2-3.5-0.7c-1.1-0.5-1.9-1.1-2.5-2c-0.6-0.8-0.9-1.8-0.9-2.8h2.4c0,1.1,0.4,2,1.2,2.6c0.8,0.6,1.9,1,3.3,1
               c1.3,0,2.2-0.3,2.9-0.8s1-1.2,1-2.1c0-0.9-0.3-1.6-0.9-2.1S26.9,182.9,25.2,182.4z"/>
           <path class="st1" d="M43.1,189.2c-0.9,1.1-2.2,1.6-4,1.6c-1.4,0-2.5-0.4-3.3-1.3c-0.8-0.8-1.1-2.1-1.1-3.7V177H37v8.8
               c0,2.1,0.8,3.1,2.5,3.1c1.8,0,2.9-0.7,3.5-2V177h2.3v13.5h-2.2L43.1,189.2z"/>
           <path class="st1" d="M55.4,179c-0.4-0.1-0.7-0.1-1.1-0.1c-1.5,0-2.5,0.6-3.1,1.9v9.6h-2.3V177h2.3l0,1.6c0.8-1.2,1.8-1.8,3.2-1.8
               c0.5,0,0.8,0.1,1,0.2V179z"/>
           <path class="st1" d="M62.7,188.9c0.8,0,1.5-0.3,2.2-0.8c0.6-0.5,1-1.1,1-1.9h2.2c0,0.8-0.3,1.5-0.8,2.2c-0.5,0.7-1.1,1.3-2,1.7
               c-0.8,0.4-1.7,0.6-2.6,0.6c-1.8,0-3.3-0.6-4.4-1.8c-1.1-1.2-1.6-2.9-1.6-5.1v-0.4c0-1.3,0.2-2.5,0.7-3.5c0.5-1,1.2-1.8,2.1-2.4
               c0.9-0.6,2-0.9,3.2-0.9c1.5,0,2.8,0.5,3.8,1.4c1,0.9,1.5,2.1,1.6,3.5h-2.2c-0.1-0.9-0.4-1.6-1-2.2s-1.3-0.8-2.2-0.8
               c-1.2,0-2.1,0.4-2.7,1.3c-0.6,0.8-1,2.1-1,3.7v0.4c0,1.6,0.3,2.8,1,3.6C60.6,188.4,61.5,188.9,62.7,188.9z"/>
           <path class="st1" d="M73,178.6c1-1.3,2.4-1.9,4-1.9c2.9,0,4.3,1.6,4.3,4.8v9H79v-9c0-1-0.2-1.7-0.7-2.2c-0.4-0.5-1.1-0.7-2-0.7
               c-0.8,0-1.4,0.2-2,0.6s-1,0.9-1.3,1.6v9.7h-2.3v-19.2H73V178.6z"/>
           <path class="st1" d="M93.2,190.5c-0.1-0.3-0.2-0.7-0.3-1.4c-1.1,1.1-2.4,1.7-3.9,1.7c-1.3,0-2.4-0.4-3.3-1.1
               c-0.9-0.8-1.3-1.7-1.3-2.9c0-1.4,0.5-2.5,1.6-3.3s2.6-1.2,4.5-1.2h2.3v-1.1c0-0.8-0.2-1.5-0.7-1.9c-0.5-0.5-1.2-0.7-2.1-0.7
               c-0.8,0-1.5,0.2-2.1,0.6c-0.6,0.4-0.8,0.9-0.8,1.5h-2.3c0-0.7,0.2-1.3,0.7-2c0.5-0.6,1.1-1.1,2-1.5s1.7-0.6,2.7-0.6
               c1.6,0,2.8,0.4,3.7,1.2c0.9,0.8,1.3,1.9,1.4,3.2v6.2c0,1.2,0.2,2.2,0.5,3v0.2H93.2z M89.3,188.7c0.7,0,1.4-0.2,2.1-0.6
               c0.7-0.4,1.1-0.9,1.4-1.5v-2.8H91c-2.8,0-4.3,0.8-4.3,2.5c0,0.7,0.2,1.3,0.7,1.7S88.6,188.7,89.3,188.7z"/>
           <path class="st1" d="M105.3,179c-0.4-0.1-0.7-0.1-1.1-0.1c-1.5,0-2.5,0.6-3.1,1.9v9.6h-2.3V177h2.3l0,1.6
               c0.8-1.2,1.8-1.8,3.2-1.8c0.5,0,0.8,0.1,1,0.2V179z"/>
           <path class="st1" d="M106.7,183.6c0-2.1,0.5-3.8,1.5-5s2.3-1.9,3.9-1.9c1.7,0,2.9,0.6,3.9,1.8l0.1-1.5h2.1v13.2
               c0,1.8-0.5,3.1-1.6,4.1c-1,1-2.4,1.5-4.2,1.5c-1,0-1.9-0.2-2.9-0.6c-0.9-0.4-1.6-1-2.1-1.7l1.2-1.4c1,1.2,2.2,1.8,3.6,1.8
               c1.1,0,2-0.3,2.6-1c0.6-0.6,0.9-1.5,0.9-2.7v-1.2c-0.9,1.1-2.2,1.6-3.8,1.6c-1.6,0-2.9-0.6-3.9-1.9
               C107.1,187.6,106.7,185.8,106.7,183.6z M109,183.9c0,1.5,0.3,2.7,0.9,3.6c0.6,0.9,1.5,1.3,2.6,1.3c1.5,0,2.5-0.7,3.2-2v-6.2
               c-0.7-1.3-1.8-1.9-3.2-1.9c-1.1,0-2,0.4-2.6,1.3S109,182.2,109,183.9z"/>
           <path class="st1" d="M127.2,190.8c-1.8,0-3.3-0.6-4.5-1.8c-1.2-1.2-1.7-2.8-1.7-4.8v-0.4c0-1.3,0.3-2.5,0.8-3.6s1.2-1.9,2.2-2.5
               c0.9-0.6,1.9-0.9,3-0.9c1.8,0,3.1,0.6,4.1,1.7s1.5,2.8,1.5,5v1h-9.2c0,1.3,0.4,2.4,1.2,3.2s1.7,1.2,2.8,1.2
               c0.8,0,1.5-0.2,2.1-0.5c0.6-0.3,1.1-0.8,1.5-1.3l1.4,1.1C131.2,189.9,129.5,190.8,127.2,190.8z M126.9,178.6
               c-0.9,0-1.7,0.3-2.4,1c-0.6,0.7-1,1.6-1.2,2.9h6.8v-0.2c-0.1-1.2-0.4-2.1-1-2.7S127.9,178.6,126.9,178.6z"/>
       </g>
       <g>
           <g>
               <g>
                   <g>
                       <g>
                           <g>
                               <path class="st0" d="M75,124H43.5c-0.5,0-0.9-0.2-1.2-0.6c-2.4-3-23.7-29.4-24.1-30c-2.2-3-1.8-6.5,1.1-9.4
                                   c1.2-1.2,2.7-1.9,4.3-1.9c2.7,0.1,4.6,2.1,4.8,2.3l13,13.2c0.6,0.6,0.6,1.5,0,2.1s-1.5,0.6-2.1,0l-13-13.2
                                   c-0.4-0.4-1.5-1.4-2.7-1.4c-0.7,0-1.4,0.3-2.1,1c-1.8,1.8-2.1,3.7-0.8,5.5c0.4,0.6,15.4,19.1,23.6,29.3H75
                                   c1.1,0,2.3-0.3,3.3-0.8l18.2-9c1.5-0.7,3.2-1.1,4.9-1.1l16.6,0.5c0.8,0,1.5,0.7,1.5,1.5s-0.7,1.5-1.5,1.5l-16.6-0.5
                                   c-1.2,0-2.4,0.2-3.5,0.8l-18.2,8.9C78.2,123.6,76.6,124,75,124z"/>
                           </g>
                       </g>
                   </g>
               </g>
           </g>
           <g>
               <g>
                   <g>
                       <g>
                           <g>
                               <path class="st0" d="M50.1,111.8c-2.7,0-7.3-0.2-9.8-2.6c-1.1-1.1-1.7-2.5-1.7-4.3s0.4-3.2,1.3-4.4c1.1-1.4,2.6-1.8,4-2.1
                                   c3.9-0.7,7.9-1.1,12-1.4c3.1-0.2,6.6-1.2,10.2-2.8c3.3-1.5,6.1-3.5,9.1-5.7c0.5-0.4,0.9-0.7,1.4-1c2.4-1.7,4.8-3.5,7.6-4.7
                                   c2.8-1.2,5.6-1.7,8.5-1.3c4,0.5,6.5,1.2,9,1.8c2.1,0.6,4.3,1.2,7.5,1.6c3.9,0.6,7.2,0.7,8.8,0.8c0.8,0,1.5,0.7,1.5,1.5
                                   s-0.7,1.5-1.5,1.5c-2.1-0.1-5.3-0.2-9.2-0.8c-3.3-0.5-5.6-1.1-7.8-1.7c-2.5-0.7-4.8-1.3-8.6-1.7c-2.3-0.3-4.7,0.1-6.9,1.1
                                   c-2.5,1.1-4.8,2.8-7,4.4c-0.4,0.3-0.9,0.6-1.3,1c-3.1,2.2-6.2,4.4-9.7,6c-4,1.8-7.7,2.8-11.2,3.1c-4,0.3-7.9,0.6-11.6,1.3
                                   c-1,0.2-1.7,0.4-2.2,1s-0.7,1.4-0.7,2.5c0,0.9,0.3,1.6,0.8,2.1c1.8,1.8,6.4,1.8,8.4,1.8c6.4-0.1,13-0.1,19.3-0.1
                                   c1.3,0,2.6-0.4,3.6-1.2l13.5-10c0.7-0.5,1.6-0.4,2.1,0.3s0.4,1.6-0.3,2.1l-13.5,10c-1.5,1.1-3.5,1.8-5.4,1.8
                                   c-6.3,0-12.8,0-19.2,0.1C50.7,111.8,50.4,111.8,50.1,111.8z"/>
                           </g>
                       </g>
                   </g>
               </g>
           </g>
       </g>
       <g>
           <g>
               <g>
                   <g>
                       <g>
                           <path class="st1" d="M53,94c-11.6,0-21.1-9.5-21.1-21.2S41.4,51.6,53,51.6s21.1,9.5,21.1,21.2S64.6,94,53,94z M53,54.6
                               c-10,0-18.1,8.2-18.1,18.2S43,91,53,91s18.1-8.2,18.1-18.2S63,54.6,53,54.6z"/>
                       </g>
                   </g>
               </g>
           </g>
       </g>
       <g class="st2">
           <g>
               <g>
                   <g>
                       <g>
                           <path class="st1" d="M51.6,86v-3.3c-1.9,0-3.8-0.6-5-1.4l0.8-2.2c1.2,0.8,2.9,1.4,4.7,1.4c2.3,0,3.9-1.4,3.9-3.2
                               s-1.3-2.9-3.7-3.9c-3.3-1.3-5.4-2.8-5.4-5.6c0-2.7,1.9-4.8,4.9-5.3v-3.3h2v3.2c2,0.1,3.3,0.6,4.2,1.1l-0.8,2.2
                               c-0.7-0.4-2-1.1-4.1-1.1c-2.5,0-3.4,1.5-3.4,2.8c0,1.7,1.2,2.5,4.1,3.7c3.4,1.4,5.1,3,5.1,5.9c0,2.6-1.8,5-5.1,5.6V86
                               L51.6,86L51.6,86z"/>
                       </g>
                   </g>
               </g>
           </g>
       </g>
       <g>
           <g>
               <g>
                   <g>
                       <g>
                           <path class="st0" d="M128.3,124.2H118c-0.8,0-1.5-0.7-1.5-1.5V84.9c0-0.8,0.7-1.5,1.5-1.5h10.3c0.8,0,1.5,0.7,1.5,1.5
                               s-0.7,1.5-1.5,1.5h-8.8v34.8h8.8c0.8,0,1.5,0.7,1.5,1.5S129.1,124.2,128.3,124.2z"/>
                       </g>
                   </g>
               </g>
           </g>
       </g>
       <g>
           <g>
               <g>
                   <g>
                       <g>
                           <path class="st1" d="M146.5,203H1.5c-0.8,0-1.5-0.7-1.5-1.5V1.5C0,0.7,0.7,0,1.5,0h145c0.8,0,1.5,0.7,1.5,1.5v200
                               C148,202.3,147.3,203,146.5,203z M3,200h142V3H3V200z"/>
                       </g>
                   </g>
               </g>
           </g>
       </g>
    </g>
    </g>
    <g id="Isolation_Mode_1_">
    <g class="st2">
       <path class="st0" d="M97.4,12.5v3.2l-10.2,24h-4.9l10.2-23v-0.1H81v-4.2H97.4z"/>
       <path class="st0" d="M101.1,36.9c0-1.9,1.3-3.3,2.9-3.3c1.7,0,2.9,1.3,2.9,3.3c0,1.9-1.2,3.2-2.9,3.2
           C102.3,40.1,101.1,38.8,101.1,36.9z"/>
       <path class="st0" d="M125.4,16.6h-9.1l-0.8,5.6c0.5-0.1,0.9-0.1,1.6-0.1c2,0,4.3,0.6,5.9,1.8c1.8,1.3,3.1,3.6,3.1,6.7
           c0,5.2-3.9,9.4-10,9.4c-2.6,0-5-0.7-6.3-1.5l0.9-3.8c1.1,0.6,3,1.3,5.1,1.3c2.8,0,5.3-1.8,5.3-5.1c0-3.4-2.3-5.3-6.9-5.3
           c-1.3,0-2.2,0.1-3.1,0.2l1.7-13.6h12.5V16.6z"/>
    </g>
    </g>
    </svg>
