<svg version="1.1" id="Layer_1" xmlns="http://www.w3.org/2000/svg" xmlns:xlink="http://www.w3.org/1999/xlink" x="0px" y="0px"
    viewBox="0 0 235 235" style="enable-background:new 0 0 235 235;" xml:space="preserve">
    <style type="text/css">
    .st0{fill:#1A1A1A;}
    .st1{fill:#0AA8C9;}
    .st2{enable-background:new    ;}
    </style>
    <g>
    <g>
       <path class="st0" d="M175.3,140.3V17.5c0-0.8-0.7-1.5-1.5-1.5h-145c-0.8,0-1.5,0.7-1.5,1.5v200c0,0.8,0.7,1.5,1.5,1.5h145
           c0.8,0,1.5-0.7,1.5-1.5v-12.7c-0.9,0.4-2,0.5-3,0.3V216h-142V19h142v121.4C173.3,140.1,174.4,140.1,175.3,140.3z"/>
       <path class="st0" d="M51.1,156.1l-4.4-4.4c-0.4-0.4-0.9-0.5-1.4-0.4c-0.5,0.1-0.9,0.5-1.1,1c-1,3.7,0,7.7,2.8,10.4
           c2.8,2.8,6.8,3.8,10.5,2.8l4.6,4.6l2.1-2.1l-5.2-5.2c-0.4-0.4-1-0.5-1.6-0.3c-2.9,1.1-6.1,0.4-8.3-1.8c-1.3-1.3-2-2.9-2.2-4.6
           l2.7,2.7c0.4,0.4,0.9,0.5,1.4,0.4l5.2-1.4c0.5-0.1,0.9-0.5,1.1-1.1l1.4-5.2c0.1-0.5,0-1.1-0.4-1.4l-2.7-2.7c1.7,0.2,3.3,1,4.6,2.2
           c2.1,2.2,2.9,5.4,1.8,8.3c-0.2,0.5-0.1,1.2,0.4,1.6l9.3,9.3l2.1-2.1L65,158c1-3.7,0-7.7-2.8-10.5c-2.7-2.7-6.7-3.8-10.4-2.8
           c-0.5,0.1-0.9,0.5-1.1,1.1c-0.1,0.5,0,1.1,0.4,1.4l4.4,4.4l-0.9,3.5L51.1,156.1z"/>
       <path class="st0" d="M97.5,193.7l4.4,4.4c0.4,0.4,0.9,0.5,1.4,0.4c0.5-0.1,0.9-0.5,1.1-1c1-3.7-0.1-7.7-2.8-10.4
           c-2.8-2.8-6.8-3.8-10.5-2.8l-3.5-3.5l-5.2-5.2l-2.1,2.1l5.2,5.2l4.1,4.1c0.4,0.4,1,0.5,1.6,0.3c2.9-1.1,6.1-0.4,8.3,1.8
           c1.2,1.3,2,2.9,2.2,4.6l-2.7-2.7c-0.4-0.4-0.9-0.5-1.4-0.4l-5.1,1.4c-0.5,0.1-0.9,0.5-1.1,1.1l-1.4,5.1c-0.1,0.5,0,1.1,0.4,1.5
           l2.7,2.7c-1.7-0.2-3.3-1-4.6-2.2c-2.2-2.2-2.8-5.4-1.8-8.3c0.2-0.6,0.1-1.2-0.3-1.6l-3.6-3.6l-1.6-1.6l-2.1,2.1l1.6,1.6l3,3
           c-1,3.7,0,7.7,2.8,10.5c2,2,4.8,3.1,7.6,3.1c0.9,0,1.9-0.1,2.8-0.4c0.5-0.1,0.9-0.5,1.1-1.1c0.1-0.5,0-1.1-0.4-1.4l-4.4-4.4
           l0.9-3.5L97.5,193.7z"/>
       <path class="st0" d="M44.9,204.3c1.4,1.4,3.3,2.1,5.1,2.1c1.9,0,3.7-0.7,5.1-2.1L74,185.5l0.9,0.9c0.3,0.3,0.7,0.4,1.1,0.4
           c0.4,0,0.8-0.2,1.1-0.4l0.7-0.7l2.9-2.9c0.3-0.3,0.4-0.7,0.4-1.1c0-0.4-0.2-0.8-0.4-1.1l-3.1-3l1.4-1.4h0l2.1-2.1h0l15.1-15.1
           l4.1-0.8c0.5-0.1,1-0.5,1.1-1l2.3-6.7c0.2-0.5,0-1.1-0.4-1.5l-3.2-3.2c-0.4-0.4-1-0.5-1.5-0.4l-6.7,2.3c-0.5,0.2-0.9,0.6-1,1.1
           l-0.8,4.1l-15.1,15.1v0l-2.1,2.1l-1.4,1.4l-3-3c-0.6-0.6-1.6-0.6-2.1,0l-0.8,0.8l-2.1,2.1l-0.7,0.7c-0.6,0.6-0.6,1.5,0,2.1l1,1
           c-0.1,0.1-0.3,0.2-0.4,0.3L44.9,194C42.1,196.9,42.1,201.5,44.9,204.3z M47,196.2l18.5-18.5c0.1-0.1,0.2-0.1,0.3-0.1
           c0.1,0,0.2,0,0.3,0.1l2.2,2.2l0.4,0.4c0.3,0.3,0.7,0.4,1.1,0.4c0.4,0,0.8-0.1,1.1-0.4c0.3-0.3,0.4-0.6,0.4-0.9
           c0.1-0.4-0.1-0.9-0.4-1.2l-2.7-2.7l-2.3-2.3l1.5-1.5l3,3c0.3,0.3,0.6,0.4,1,0.4c0.4,0,0.8-0.1,1.2-0.4l2.5-2.5h0l2.1-2.1h0
           l15.4-15.4c0.2-0.2,0.4-0.5,0.4-0.8l0.7-3.7l5-1.7l1.9,1.9l-1.7,5l-3.7,0.7c-0.3,0.1-0.6,0.2-0.8,0.4L79,172h0l-2.1,2.1h0
           l-2.5,2.5c-0.3,0.3-0.5,0.8-0.4,1.2c0,0.3,0.2,0.7,0.4,0.9l3.1,3l-1.5,1.5l-0.9-0.9c-0.3-0.3-0.8-0.5-1.2-0.4
           c-0.3,0-0.7,0.2-0.9,0.4L53,202.2c-1.7,1.7-4.3,1.7-6,0C45.4,200.5,45.4,197.8,47,196.2z"/>
    </g>
    <g>
       <path class="st1" d="M173.8,138.7c-18.7,0-33.8,15.3-33.8,34s15.2,34,33.8,34s33.8-15.3,33.8-34S192.5,138.7,173.8,138.7z
            M173.8,203.7c-17,0-30.8-13.9-30.8-31s13.8-31,30.8-31s30.8,13.9,30.8,31S190.8,203.7,173.8,203.7z"/>
       <path class="st1" d="M175,169.9c-4.7-1.9-6.7-3.3-6.7-6.1c0-2.1,1.5-4.6,5.7-4.7c3.4,0,5.6,1.2,6.8,1.8l1.3-3.6
           c-1.6-0.9-3.8-1.8-7-1.8l0-5.2l-3.3,0l0,5.4c-4.9,0.8-8.1,4.2-8.1,8.7c0,4.7,3.4,7.1,8.9,9.3c4,1.6,6.1,3.4,6.1,6.4
           c0,3.1-2.6,5.3-6.4,5.3c-3,0-5.8-1-7.7-2.3l-1.3,3.6c1.9,1.3,5.1,2.3,8.2,2.3l0,5.4l3.4,0l0-5.6c5.5-0.9,8.5-4.9,8.4-9.2
           C183.4,174.9,180.6,172.1,175,169.9z"/>
       <path class="st1" d="M49.1,55.8c0,3.3,2.8,6.4,8.3,6.4c5,0,8.5-2.8,8.5-7c0-2.9-1.9-4.9-4.5-5.9v-0.1c2.6-1.3,3.6-3.3,3.6-5.3
           c0-2.9-2.3-5.9-7.3-5.9c-4.4,0-7.8,2.6-7.8,6.4c0,2.1,1.1,4,3.6,5.2v0.1C50.8,50.9,49.1,52.9,49.1,55.8z M57.5,41.1
           c2.4,0,3.3,1.7,3.3,3.3c0,1.8-1.3,3.1-2.9,3.5c-2.2-0.6-3.8-1.8-3.8-3.7C54.1,42.6,55.3,41.1,57.5,41.1z M57.1,51.2
           c2.6,0.7,4.4,2,4.4,4.4c0,2-1.5,3.5-3.9,3.5c-2.5,0-4-1.8-3.9-3.8C53.6,53.4,54.9,51.8,57.1,51.2z"/>
       <path class="st1" d="M70.3,55.8c0,2.3,0.4,3.9,1.4,4.9c0.8,0.9,2.2,1.4,3.8,1.4c1.4,0,2.6-0.2,3.2-0.4l-0.1-3.4
           c-0.4,0.1-1,0.2-1.7,0.2c-1.7,0-2.3-1.1-2.3-3.2v-7.7h4.2v-3.3h-4.2v-5l-4.3,1v4h-2.5v3.3h2.5V55.8z"/>
       <path class="st1" d="M86.6,51.3c0-0.5,0-1,0.2-1.3c0.5-1.3,1.7-2.5,3.4-2.5c2.4,0,3.4,1.9,3.4,4.5v9.8H98V51.5
           c0-5.6-3.1-7.6-6.1-7.6c-1.1,0-2.2,0.3-3,0.8c-0.9,0.5-1.7,1.2-2.2,2h-0.1V36.3h-4.5v25.6h4.5V51.3z"/>
       <path class="st1" d="M63.4,73.6l-2.9,6.2c-0.8,1.8-1.5,3.3-2.1,4.8h-0.1c-0.6-1.7-1.3-3-2.1-4.8l-2.9-6.2h-5l7.7,14.1v10.1h4.4
           V87.6l8.1-14H63.4z"/>
       <path class="st1" d="M75,79.9c-5.6,0-8.6,4.6-8.6,9.4c0,5.4,3.3,8.9,9,8.9c2.5,0,4.6-0.5,6.1-1.1L80.9,94
           c-1.3,0.5-2.8,0.8-4.9,0.8c-2.8,0-5.3-1.4-5.4-4.5h11.7c0.1-0.4,0.1-1,0.1-1.9C82.6,84.6,80.7,79.9,75,79.9z M70.7,87.2
           c0.2-1.8,1.3-4.3,4.1-4.3c3,0,3.7,2.7,3.6,4.3H70.7z"/>
       <path class="st1" d="M99.7,87.3c0-3.8-1.6-7.4-7.2-7.4c-2.8,0-5,0.8-6.3,1.5l0.9,2.9c1.2-0.8,3-1.3,4.7-1.3c3.1,0,3.6,1.9,3.6,3.1
           v0.3c-6.5,0-10.4,2.2-10.4,6.6c0,2.7,2,5.2,5.5,5.2c2.3,0,4.1-1,5.2-2.3h0.1l0.3,1.9h4c-0.2-1.1-0.3-2.6-0.3-4.2V87.3z M95.4,91.7
           c0,0.3,0,0.6-0.1,1c-0.4,1.3-1.7,2.4-3.5,2.4c-1.4,0-2.5-0.8-2.5-2.5c0-2.7,3-3.3,6.1-3.3V91.7z"/>
       <path class="st1" d="M108.4,83.6h-0.1l-0.1-3.3h-3.9c0.1,1.6,0.1,3.3,0.1,5.7v11.9h4.4v-9.1c0-0.5,0.1-1,0.1-1.4
           c0.4-2,1.8-3.3,4-3.3c0.5,0,0.9,0.1,1.3,0.1V80c-0.4-0.1-0.6-0.1-1-0.1C111.3,79.9,109.3,81.1,108.4,83.6z"/>
    </g>
    </g>
    </svg>
